#!OML:ASF F:\VICON\USERDATA\INSTALL\rory3\rory3.ASF
:FULLY-SPECIFIED
:DEGREES
94
root 10.1034 17.8144 -7.29006 -1.41045 -19.3265 -0.110327
lowerback 9.34353 3.57147 2.99729
upperback 0.355003 5.05578 -0.203016
thorax -4.57982 2.43245 -2.54174
lowerneck -21.564 -7.05148 -12.9965
upperneck 27.5812 -9.29053 11.604
head 14.2856 -3.89427 5.14287
rclavicle -1.4971e-014 -3.97569e-016
rhumerus -30.1286 -9.36743 -84.0992
rradius 36.4718
rwrist 3.36795
rhand -16.9375 8.42041
rfingers 7.12502
rthumb 9.29564 -21.3547
lclavicle -1.4971e-014 -3.97569e-016
lhumerus -37.7197 9.01169 80.2155
lradius 27.3755
lwrist -10.9328
lhand -16.1665 27.3036
lfingers 7.12502
lthumb 10.0395 57.0442
rfemur 11.3277 2.54078 28.6123
rtibia 24.8325
rfoot -10.6429 5.46388
rtoes 4.58812
lfemur -17.6457 -4.48432 -17.5793
ltibia 14.1959
lfoot 0.355482 -4.49457
ltoes -9.57256
95
root 10.0636 17.8288 -7.14424 -1.52629 -19.4646 0.307452
lowerback 9.20934 3.56898 2.44635
upperback 0.337247 4.98987 -0.228854
thorax -4.57171 2.4116 -2.24632
lowerneck -21.4969 -6.99749 -12.9562
upperneck 27.6806 -9.19858 11.4642
head 14.2874 -3.87146 5.10044
rclavicle -3.07371e-014 9.93923e-016
rhumerus -30.3864 -9.67595 -83.8497
rradius 36.0508
rwrist 3.53387
rhand -17.3706 8.05727
rfingers 7.12502
rthumb 8.87772 -21.736
lclavicle -3.07371e-014 9.93923e-016
lhumerus -37.6938 9.04953 80.2429
lradius 27.3786
lwrist -10.7781
lhand -15.7307 27.8706
lfingers 7.12502
lthumb 10.46 57.5904
rfemur 10.7517 2.51963 28.1065
rtibia 26.6842
rfoot -9.47713 5.75195
rtoes 5.26726
lfemur -16.8974 -4.11833 -18.0735
ltibia 13.4923
lfoot 1.68162 -5.45687
ltoes -8.67638
96
root 10.0221 17.8444 -6.99909 -1.72347 -19.5363 0.928562
lowerback 9.13518 3.54603 1.66116
upperback 0.283478 4.87432 -0.28098
thorax -4.65297 2.36902 -1.84849
lowerneck -21.3249 -6.91325 -12.8994
upperneck 27.7248 -9.04553 11.2365
head 14.2261 -3.83513 5.02862
rclavicle 2.40778e-014 -4.57205e-015
rhumerus -30.6652 -10.0462 -83.5863
rradius 35.6034
rwrist 3.72397
rhand -17.3946 8.33551
rfingers 7.12502
rthumb 8.85461 -21.4587
lclavicle 2.40778e-014 -4.57205e-015
lhumerus -37.6876 9.09397 80.2886
lradius 27.242
lwrist -10.5199
lhand -15.8307 28.104
lfingers 7.12502
lthumb 10.3634 57.8286
rfemur 10.0276 2.37888 27.346
rtibia 28.7835
rfoot -8.31114 6.13393
rtoes 6.15805
lfemur -16.0393 -3.3196 -18.8632
ltibia 12.6411
lfoot 3.0588 -6.72458
ltoes -6.52767
97
root 9.9825 17.8597 -6.84664 -2.07605 -19.5753 1.65265
lowerback 9.06284 3.48238 0.928841
upperback 0.332176 4.70483 -0.431653
thorax -4.61429 2.30046 -1.57018
lowerneck -21.1801 -6.84692 -12.9073
upperneck 27.6355 -8.92922 11.1611
head 14.1329 -3.80035 5.01881
rclavicle -2.5929e-014 6.55989e-015
rhumerus -30.8321 -10.527 -83.421
rradius 35.0743
rwrist 4.03512
rhand -17.1898 8.67597
rfingers 7.12502
rthumb 9.05216 -21.1098
lclavicle -2.5929e-014 6.55989e-015
lhumerus -37.4409 9.25754 80.1836
lradius 26.8518
lwrist -10.4772
lhand -16.3743 27.7838
lfingers 7.12502
lthumb 9.83902 57.5339
rfemur 9.35813 1.991 26.3501
rtibia 31.0072
rfoot -7.00819 6.64943
rtoes 6.13781
lfemur -14.9574 -2.62149 -19.7739
ltibia 11.7599
lfoot 3.88243 -7.35502
ltoes -6.45847
98
root 9.94314 17.8684 -6.71162 -2.34728 -19.4674 2.03801
lowerback 9.18861 3.36376 0.501351
upperback 0.350928 4.49882 -0.510932
thorax -4.6976 2.20569 -1.39704
lowerneck -21.0214 -6.77538 -12.8772
upperneck 27.5437 -8.83776 11.1339
head 14.0409 -3.76629 5.01788
rclavicle 5.96106e-014 4.77083e-015
rhumerus -31.0451 -11.0903 -83.1969
rradius 34.4139
rwrist 4.37852
rhand -16.9408 8.94712
rfingers 7.12502
rthumb 9.29251 -20.8281
lclavicle 5.96106e-014 4.77083e-015
lhumerus -37.2564 9.30946 80.0904
lradius 26.6723
lwrist -10.5225
lhand -16.1416 28.3554
lfingers 7.12502
lthumb 10.0636 58.0947
rfemur 8.56187 1.55351 25.798
rtibia 33.2821
rfoot -5.26785 6.87285
rtoes 6.43895
lfemur -13.9913 -2.03258 -20.3046
ltibia 10.9835
lfoot 4.09302 -7.59817
ltoes -9.33279
99
root 9.90459 17.8805 -6.56497 -2.57184 -19.506 2.30217
lowerback 9.19381 3.30377 0.180018
upperback 0.385207 4.38435 -0.525423
thorax -4.69039 2.15595 -1.21793
lowerneck -20.9816 -6.71498 -12.7647
upperneck 27.6286 -8.75201 10.9765
head 14.039 -3.73955 4.95335
rclavicle 1.20762e-014 -5.56597e-015
rhumerus -31.3459 -11.582 -82.9028
rradius 33.9105
rwrist 4.60233
rhand -16.7753 8.99751
rfingers 7.12502
rthumb 9.45212 -20.7705
lclavicle 1.20762e-014 -5.56597e-015
lhumerus -37.2733 9.44349 80.0004
lradius 26.7862
lwrist -10.934
lhand -15.8289 28.3707
lfingers 7.12502
lthumb 10.3653 58.0952
rfemur 7.76812 1.16821 25.267
rtibia 35.5308
rfoot -3.21412 7.27466
rtoes 7.58927
lfemur -13.0801 -1.44398 -20.6937
ltibia 10.4846
lfoot 3.9471 -7.84415
ltoes -10.5138
